<svg id="Layer_1" data-name="Layer 1" xmlns="http://www.w3.org/2000/svg" width="100%" height="100%" viewBox="0 0 64 64"><defs><style>.cls-1{fill:currentColor;}</style></defs><title>lightbulb-off</title><path class="cls-1" d="M48.8,21.16c-.53-2.75-3.72-8.16-5.75-9.31A20.08,20.08,0,0,0,33.49,9a22.83,22.83,0,0,0-9.94,1.47A15.93,15.93,0,0,0,18,14.69a13.09,13.09,0,0,0-3.09,9.13c.15,3.68,1.28,5.62,3.21,8.46a27.5,27.5,0,0,0,5.79,5.57c-.47,3,1.21,3,1.46,3.06s.1.37-.09.72a4.5,4.5,0,0,0-.81,2.69,1.37,1.37,0,0,0,1.22,1.28c.4.12.34.4.25.81a17.83,17.83,0,0,1-1,2.12c-.28.57.34,1.07.56,1.22s.13.75,0,1.38.06.69.69,1.06,2.93,1.91,3.93,2.38a3,3,0,0,0,2.38.31c.72-.25.41-.63,1.59-1.35a50.69,50.69,0,0,0,4.38-2.65,2.51,2.51,0,0,0,.09-2.35c-.4-.84.38-1.62.56-2.15a1.81,1.81,0,0,0-.34-1.6c-.31-.37.34-1,.66-1.84s-.57-1.62-.69-1.78A6.46,6.46,0,0,1,38.86,39c.13-.43.41-.59,1.13-.93s1.34-1.13,3.44-3.32,2.93-2.78,4.4-5.4A11.79,11.79,0,0,0,48.8,21.16ZM37.44,43c-.13.5-1.11,1.05-1.11,1.59s.13.73.36.89A1.21,1.21,0,0,1,37,46.85c-.25.62-.81,1.83-.81,1.83s-1-1-1.25-.83a.79.79,0,0,0-.21,1c.23.27,1.63,1.43,1.38,1.6s-1,.77-1.09.56-1.14-2.25-1.39-2.12-.73.19-.57.62,1.25,1.79,1.09,1.92-.54.35-.59.29-1.18-1.64-1.37-1.58-.79.33-.63.54,1.17,1.35,1,1.52-.83.63-1.06.58a26.43,26.43,0,0,1-3-1.41c-.94-.52-1.13-.77-.9-.77s1.9.29,2.57.27.66-.46.5-.59a14.78,14.78,0,0,0-2.07-.41c-.48-.09-.73-.11-.75-.27s.38-.69.27-.94-.31-.71-.5-.79-.58-.23-.33-.54,1,.08,2.79.37a19.68,19.68,0,0,0,3.79.23c.48,0,.8-.17.59-.42a4.48,4.48,0,0,0-2.09-.85c-.91-.15-1.35.08-2.62-.08s-1.92-.13-1.85-.34.62-1.06.25-1.56a1.45,1.45,0,0,0-1.09-.73c-.5-.08-.79-.1-.79-.33s.52-1.48.71-1.44a13,13,0,0,0,3.46.56A13.27,13.27,0,0,0,35,42.58c.08-.13-.06-.55-.5-.52A30.09,30.09,0,0,1,30,41.89c-1.79-.25-2.17-.29-2.13-.5s.42-.4.27-.81-.62-.77-.62-1S29.77,40,31,40a35.24,35.24,0,0,0,4.37-.54c.92-.21,1.36-.21,1.44-.1s-.5,1.89-.12,2.37S37.56,42.51,37.44,43ZM33.08,38.1c.19.25.25.41.21.48a11.57,11.57,0,0,1-3.42.16c-.18,0-.5-.1-.35-.27a1.1,1.1,0,0,0,.33-1.12c-.14-.65-.81-3-1.12-3.88a5.94,5.94,0,0,1-.5-1.89c.1-.07.54-.21.69-.46s.62-1.15,1-.9.62,1.23,1.41,1.31a1.06,1.06,0,0,0,1.29-.6c.27-.46.42-.46.55-.23s.5,1.38.79,1.42.83-.19.89.06A12.16,12.16,0,0,1,34,35.56C33.4,37,32.9,37.85,33.08,38.1Zm13.29-8.69a12.08,12.08,0,0,1-1.66,2.17c-.27.2-1.36-2.46-1.59-2.75s-.54,0-.62.29a17.16,17.16,0,0,0,1.73,2.75c.14.23-.75,1.06-.88,1.06S42.23,30.64,42,30.64s-.58.35-.65.52,1.5,2.25,1.52,2.46-.77.83-.93.85-1.25-2.25-1.36-2.29-.58.4-.64.5A22.77,22.77,0,0,0,41.27,35a4.81,4.81,0,0,1-1,1.13c-.21.14-1.1-1.94-1.23-2s-.54.37-.68.52,1.14,2.1,1.16,2.25-.79.5-.79.5a18.86,18.86,0,0,0-.85-1.92c-.17-.16-.59.17-.82.38s.65,1.64.69,1.77-.48.41-1.25.64a7.39,7.39,0,0,1-2,.27c-.17,0,.25-.47.52-.81a11.63,11.63,0,0,0,1-2.44c.4-1.16,1.25-4.18,1.44-5s-.86-1.11-1.15-1a11.52,11.52,0,0,0-1.71,1.37c-.12.15-.23-.15-.27-.25s-.14-1-1-1.15-1.85.78-1.91.88-1.07-1-1.86-1-1.81,1.64-1.81,1.64-.21-.37-.42-.66a.6.6,0,0,0-.87,0,1.84,1.84,0,0,0-.5,1.72,33.44,33.44,0,0,0,1.7,4.79c.59,1.46.15,1.78.15,1.78a8.58,8.58,0,0,1-2.29-1,11,11,0,0,1-3.06-2.23,23.28,23.28,0,0,1-4.77-5.9c-2-3.43-1.52-7.16-1-9.73s1.87-3.81,4-5.91,4.08-2.71,8.61-3.4,6.66,0,10.75,1.73,4.68,3.56,5.85,5.44a15.89,15.89,0,0,1,2,6.91A7.63,7.63,0,0,1,46.37,29.41ZM22,29.87a5.82,5.82,0,0,1-1.67-3.44,8.34,8.34,0,0,1,.23-4c.25-.63-.29-.67-.6-.63s-.65.5-.92,2.32a8.07,8.07,0,0,0,.75,4.7A6.85,6.85,0,0,0,22,31.24c.25.09.46-.21.58-.37S22.77,30.47,22,29.87ZM44.37,26.6c-.14,0-.79.32-.72.54A14.16,14.16,0,0,0,45.4,29.7c.18.11.31,0,.43-.25A10,10,0,0,0,44.37,26.6ZM45,25a10.79,10.79,0,0,0,1.48,2.46c.19.15.44-.14.52-.33a9.37,9.37,0,0,0-1.42-2.54C45.35,24.45,45,24.93,45,25Zm1-1.6a8.53,8.53,0,0,0,1.15,1.33c.12.13.37-.27.5-.39s-.84-1.4-1-1.56S46,23.34,46,23.43Zm-.94-2.33c.44-.54,0-2.34-1.46-4.77s-3.35-2.69-3.68-2.69-.62.81-.4.87c.9.27,1.71.69,3.13,2.4A7.2,7.2,0,0,1,44,21C44.17,21.43,44.65,21.64,45.08,21.1Z"/></svg>